<mxfile host="app.diagrams.net" agent="Mozilla/5.0 (Windows NT 10.0; Win64; x64) AppleWebKit/537.36 (KHTML, like Gecko) Chrome/129.0.0.0 Safari/537.36" version="24.7.16">
  <diagram name="Page-1" id="ZBg4LQUTQwNDbiML_Xjt">
    <mxGraphModel dx="634" dy="486" grid="1" gridSize="10" guides="1" tooltips="1" connect="1" arrows="1" fold="1" page="1" pageScale="1" pageWidth="850" pageHeight="1100" math="0" shadow="0">
      <root>
        <mxCell id="0" />
        <mxCell id="1" parent="0" />
        <mxCell id="CkTPrTIUPqXKCfAMoIH2-3" value="" style="edgeStyle=orthogonalEdgeStyle;rounded=0;orthogonalLoop=1;jettySize=auto;html=1;" edge="1" parent="1" source="CkTPrTIUPqXKCfAMoIH2-1" target="CkTPrTIUPqXKCfAMoIH2-2">
          <mxGeometry relative="1" as="geometry" />
        </mxCell>
        <mxCell id="CkTPrTIUPqXKCfAMoIH2-1" value="Generate random number between 1 and 20 and call it secret" style="rounded=0;whiteSpace=wrap;html=1;" vertex="1" parent="1">
          <mxGeometry x="290" y="40" width="120" height="60" as="geometry" />
        </mxCell>
        <mxCell id="CkTPrTIUPqXKCfAMoIH2-15" value="" style="edgeStyle=orthogonalEdgeStyle;rounded=0;orthogonalLoop=1;jettySize=auto;html=1;" edge="1" parent="1" source="CkTPrTIUPqXKCfAMoIH2-2" target="CkTPrTIUPqXKCfAMoIH2-14">
          <mxGeometry relative="1" as="geometry" />
        </mxCell>
        <mxCell id="CkTPrTIUPqXKCfAMoIH2-2" value="Get user input and store in guess" style="whiteSpace=wrap;html=1;rounded=0;" vertex="1" parent="1">
          <mxGeometry x="290" y="130" width="120" height="60" as="geometry" />
        </mxCell>
        <mxCell id="CkTPrTIUPqXKCfAMoIH2-7" value="" style="edgeStyle=orthogonalEdgeStyle;rounded=0;orthogonalLoop=1;jettySize=auto;html=1;" edge="1" parent="1" source="CkTPrTIUPqXKCfAMoIH2-4" target="CkTPrTIUPqXKCfAMoIH2-6">
          <mxGeometry relative="1" as="geometry" />
        </mxCell>
        <mxCell id="CkTPrTIUPqXKCfAMoIH2-8" value="Yes" style="edgeLabel;html=1;align=center;verticalAlign=middle;resizable=0;points=[];" vertex="1" connectable="0" parent="CkTPrTIUPqXKCfAMoIH2-7">
          <mxGeometry x="-0.5511" relative="1" as="geometry">
            <mxPoint as="offset" />
          </mxGeometry>
        </mxCell>
        <mxCell id="CkTPrTIUPqXKCfAMoIH2-10" value="" style="edgeStyle=orthogonalEdgeStyle;rounded=0;orthogonalLoop=1;jettySize=auto;html=1;" edge="1" parent="1" source="CkTPrTIUPqXKCfAMoIH2-4" target="CkTPrTIUPqXKCfAMoIH2-9">
          <mxGeometry relative="1" as="geometry" />
        </mxCell>
        <mxCell id="CkTPrTIUPqXKCfAMoIH2-13" value="No" style="edgeLabel;html=1;align=center;verticalAlign=middle;resizable=0;points=[];" vertex="1" connectable="0" parent="CkTPrTIUPqXKCfAMoIH2-10">
          <mxGeometry x="-0.1817" y="3" relative="1" as="geometry">
            <mxPoint as="offset" />
          </mxGeometry>
        </mxCell>
        <mxCell id="CkTPrTIUPqXKCfAMoIH2-4" value="Is guess equal&lt;br&gt;to secret?" style="rhombus;whiteSpace=wrap;html=1;rounded=0;" vertex="1" parent="1">
          <mxGeometry x="290" y="360" width="120" height="100" as="geometry" />
        </mxCell>
        <mxCell id="CkTPrTIUPqXKCfAMoIH2-6" value="Print &quot;you won&quot;" style="whiteSpace=wrap;html=1;rounded=0;" vertex="1" parent="1">
          <mxGeometry x="480" y="380" width="120" height="60" as="geometry" />
        </mxCell>
        <mxCell id="CkTPrTIUPqXKCfAMoIH2-11" style="edgeStyle=orthogonalEdgeStyle;rounded=0;orthogonalLoop=1;jettySize=auto;html=1;exitX=0.5;exitY=0;exitDx=0;exitDy=0;entryX=0;entryY=0.5;entryDx=0;entryDy=0;" edge="1" parent="1" source="CkTPrTIUPqXKCfAMoIH2-9" target="CkTPrTIUPqXKCfAMoIH2-2">
          <mxGeometry relative="1" as="geometry" />
        </mxCell>
        <mxCell id="CkTPrTIUPqXKCfAMoIH2-9" value="Print &quot;try again&quot;" style="whiteSpace=wrap;html=1;rounded=0;" vertex="1" parent="1">
          <mxGeometry x="50" y="380" width="120" height="60" as="geometry" />
        </mxCell>
        <mxCell id="CkTPrTIUPqXKCfAMoIH2-16" style="edgeStyle=orthogonalEdgeStyle;rounded=0;orthogonalLoop=1;jettySize=auto;html=1;" edge="1" parent="1" source="CkTPrTIUPqXKCfAMoIH2-14" target="CkTPrTIUPqXKCfAMoIH2-4">
          <mxGeometry relative="1" as="geometry" />
        </mxCell>
        <mxCell id="CkTPrTIUPqXKCfAMoIH2-17" value="Yes" style="edgeLabel;html=1;align=center;verticalAlign=middle;resizable=0;points=[];" vertex="1" connectable="0" parent="CkTPrTIUPqXKCfAMoIH2-16">
          <mxGeometry x="-0.1537" y="2" relative="1" as="geometry">
            <mxPoint as="offset" />
          </mxGeometry>
        </mxCell>
        <mxCell id="CkTPrTIUPqXKCfAMoIH2-19" value="" style="edgeStyle=orthogonalEdgeStyle;rounded=0;orthogonalLoop=1;jettySize=auto;html=1;" edge="1" parent="1" source="CkTPrTIUPqXKCfAMoIH2-14" target="CkTPrTIUPqXKCfAMoIH2-18">
          <mxGeometry relative="1" as="geometry" />
        </mxCell>
        <mxCell id="CkTPrTIUPqXKCfAMoIH2-14" value="Is guess positive?" style="rhombus;whiteSpace=wrap;html=1;rounded=0;" vertex="1" parent="1">
          <mxGeometry x="310" y="220" width="80" height="80" as="geometry" />
        </mxCell>
        <mxCell id="CkTPrTIUPqXKCfAMoIH2-20" style="edgeStyle=orthogonalEdgeStyle;rounded=0;orthogonalLoop=1;jettySize=auto;html=1;entryX=0;entryY=0.75;entryDx=0;entryDy=0;" edge="1" parent="1" source="CkTPrTIUPqXKCfAMoIH2-18" target="CkTPrTIUPqXKCfAMoIH2-2">
          <mxGeometry relative="1" as="geometry">
            <Array as="points">
              <mxPoint x="220" y="175" />
            </Array>
          </mxGeometry>
        </mxCell>
        <mxCell id="CkTPrTIUPqXKCfAMoIH2-18" value="Print &quot;invalid input&quot;" style="whiteSpace=wrap;html=1;rounded=0;" vertex="1" parent="1">
          <mxGeometry x="150" y="230" width="120" height="60" as="geometry" />
        </mxCell>
      </root>
    </mxGraphModel>
  </diagram>
</mxfile>
